<?xml version="1.0" encoding="utf-8"?>
<!-- Generator: Adobe Illustrator 25.1.0, SVG Export Plug-In . SVG Version: 6.00 Build 0)  -->
<svg version="1.1" id="레이어_1" xmlns="http://www.w3.org/2000/svg" xmlns:xlink="http://www.w3.org/1999/xlink" x="0px"
	 y="0px" viewBox="0 0 23 20" style="enable-background:new 0 0 23 20;" xml:space="preserve">
<style type="text/css">
	.st0{fill:#FFFFFF;}
</style>
<g>
	<path class="st0" d="M11.5,0c2.6,0,5.3,0,7.9,0c0.4,0,0.9,0.1,1.3,0.3c0.3,0.1,0.6,0.3,0.8,0.4c0.4,0.3,0.8,0.7,1,1.2
		c0.2,0.4,0.3,0.8,0.4,1.2c0,0.2,0,0.3,0,0.5c0,3,0,5.9,0,8.9c0,0.1,0,0.2,0,0.3c0,0.4-0.1,0.9-0.3,1.3c-0.2,0.5-0.5,0.9-0.8,1.3
		c-0.4,0.4-0.9,0.7-1.4,0.9c-0.4,0.1-0.8,0.2-1.3,0.2c-1.7,0-3.4,0-5.1,0c-0.2,0-0.3,0.1-0.3,0.2c-0.1,0.2-0.3,0.5-0.4,0.7
		c-0.1,0.2-0.3,0.5-0.4,0.7c-0.2,0.3-0.3,0.6-0.5,0.8c-0.1,0.2-0.2,0.4-0.3,0.6c-0.1,0.2-0.2,0.4-0.5,0.5c-0.3,0.1-0.5,0-0.7-0.2
		c-0.3-0.5-0.6-1-0.9-1.4c-0.1-0.2-0.3-0.5-0.4-0.7c-0.2-0.3-0.4-0.7-0.6-1c-0.1-0.1-0.1-0.1-0.2-0.1c-1.7,0-3.4,0-5.1,0
		c-0.2,0-0.4,0-0.6,0c-0.3,0-0.6-0.1-0.9-0.2c-0.3-0.1-0.7-0.3-1-0.5c-0.3-0.2-0.6-0.5-0.8-0.8c-0.1-0.2-0.3-0.5-0.4-0.7
		c-0.1-0.3-0.2-0.6-0.2-0.9c0-0.4,0-0.8,0-1.2c0-2.7,0-5.4,0-8.2c0-0.7,0.1-1.3,0.5-2c0.2-0.5,0.6-0.9,1-1.2
		c0.2-0.1,0.4-0.3,0.6-0.4c0.2-0.1,0.4-0.2,0.6-0.2C3.2,0,3.6,0,4,0C6.5,0,9,0,11.5,0z M19.1,10.4c0,0.3,0,0.5-0.1,0.8
		c-0.1,0.4-0.4,0.6-0.7,0.6c-0.1,0-0.2,0-0.3,0c-0.1,0-0.1,0-0.1,0.1c0,0.4,0,0.7,0,1.1c0,0,0.1,0.1,0.1,0.1c0.5,0,0.9,0,1.4-0.2
		c0.6-0.3,0.9-0.7,1-1.3c0.1-0.3,0.1-0.5,0.1-0.8c0-1.3,0-2.6,0-3.9c0-0.2,0-0.2-0.2-0.2c-0.3,0-0.7,0-1,0c-0.2,0-0.2,0-0.2,0.2
		c0,0.1,0,0.1,0,0.2c-0.2-0.1-0.4-0.3-0.6-0.4c-0.5-0.2-0.9-0.1-1.4,0.1c-0.3,0.1-0.5,0.3-0.7,0.6c-0.2,0.2-0.3,0.4-0.3,0.7
		C16,8.3,15.9,8.6,16,8.9c0,0.2,0,0.3,0.1,0.5c0.1,0.2,0.2,0.5,0.3,0.7c0.1,0.2,0.3,0.4,0.6,0.6c0.3,0.2,0.6,0.3,1,0.3
		c0.4,0,0.7-0.1,1-0.3C18.9,10.6,19,10.5,19.1,10.4z M3.9,4.8c-0.1,0-0.1,0-0.1,0c-0.4,0-0.8,0-1.2,0c-0.1,0-0.1,0-0.1,0.1
		c0,1.9,0,3.9,0,5.8c0,0.1,0,0.1,0.1,0.1c0.4,0,0.8,0,1.2,0c0,0,0.1,0,0.1,0c0-0.1,0-0.3,0-0.4c0,0,0,0,0,0C4.3,10.9,4.6,11,5.1,11
		c0.2,0,0.3,0,0.5-0.1c0.4-0.1,0.7-0.3,0.9-0.5C6.8,10.1,7,9.8,7,9.4c0.1-0.6,0-1.1-0.2-1.7C6.7,7.4,6.6,7.2,6.3,7
		C6,6.7,5.7,6.6,5.3,6.6c-0.3,0-0.5,0-0.7,0.1C4.3,6.8,4.1,6.9,3.9,7.1C3.9,6.3,3.9,5.6,3.9,4.8z M10.5,8.8c0,0,0,0.4,0.1,0.6
		c0,0.2,0.1,0.4,0.2,0.6c0.2,0.3,0.5,0.6,0.8,0.7c0.5,0.2,1,0.3,1.5,0.2c0.4-0.1,0.8-0.2,1.1-0.4c0.4-0.3,0.7-0.6,0.8-1.1
		c0.1-0.5,0.1-1-0.1-1.5c-0.2-0.5-0.5-0.9-1-1.2c-0.3-0.1-0.5-0.2-0.8-0.2c-0.4-0.1-0.8,0-1.2,0.1c-0.2,0.1-0.4,0.2-0.6,0.3
		c-0.3,0.2-0.6,0.5-0.7,0.8C10.6,8.1,10.5,8.5,10.5,8.8z M8.2,10.9c0.4,0,0.8,0,1.2,0c0.1,0,0.1,0,0.1-0.2c0-1.2,0-2.5,0-3.7
		c0-0.4-0.1-0.8-0.2-1.2C9.1,5.4,8.8,5.1,8.4,4.9C8.2,4.8,7.9,4.7,7.7,4.7c-0.1,0-0.1,0-0.1,0.1c0,0.4,0,0.8,0,1.2
		c0,0.1,0,0.1,0.1,0.1c0.2,0,0.3,0.1,0.3,0.3c0.2,0.3,0.2,0.6,0.2,0.9c0,1.2,0,2.3,0,3.5C8.2,10.8,8.2,10.8,8.2,10.9z"/>
	<path class="st0" d="M18.3,9.7c-0.5,0-0.9-0.4-0.9-0.9c0-0.5,0.4-0.9,0.9-0.9c0.5,0,0.9,0.5,0.9,1C19.2,9.3,18.8,9.8,18.3,9.7z"/>
	<path class="st0" d="M4.8,9.7c-0.5,0-0.9-0.5-0.9-1c0-0.5,0.4-0.9,0.9-0.9c0.5,0,0.9,0.5,0.9,1C5.7,9.4,5.3,9.7,4.8,9.7z"/>
	<path class="st0" d="M12.9,9.7c-0.5,0-0.9-0.4-0.9-0.9c0-0.6,0.4-1,0.9-1c0.5,0,0.9,0.5,0.9,0.9C13.8,9.3,13.4,9.8,12.9,9.7z"/>
</g>
</svg>
