<svg width="20" height="20" viewBox="0 0 20 20" fill="none" xmlns="http://www.w3.org/2000/svg">
<path d="M20 16.6923C20 18.5256 18.5128 20 16.6923 20H3.30769C1.48718 20 0 18.5256 0 16.6923V3.30769C0 1.48718 1.48718 0 3.30769 0H16.6923C18.5256 0 20 1.48718 20 3.30769V16.6923Z" fill="white"/>
<path d="M9.99989 3.51282C6.24348 3.51282 3.20502 6.33333 3.20502 9.82051C3.20502 11.8846 4.26912 13.7051 5.91015 14.859V17.6282C5.91015 17.6667 5.93579 17.7051 5.96143 17.7179C5.97425 17.7308 5.98707 17.7308 6.01271 17.7308C6.03835 17.7308 6.05117 17.7179 6.07681 17.7051L8.51271 15.9744C8.99989 16.0769 9.49989 16.1282 10.0127 16.1282C13.7691 16.1282 16.8076 13.3077 16.8076 9.82051C16.7948 6.34615 13.7563 3.51282 9.99989 3.51282Z" fill="black"/>
<path d="M14.2437 9.10254C14.0129 8.84613 13.6667 8.73074 13.2308 8.73074C12.9872 8.73074 12.7565 8.78202 12.5642 8.89741C12.4231 8.97433 12.2949 9.07689 12.1796 9.17946V7.11536H11.218V12.5256H12.1796V10.5128C12.1796 10.3461 12.2052 10.1923 12.2437 10.0641C12.2949 9.93587 12.3462 9.82048 12.4231 9.73074C12.5001 9.641 12.5898 9.5769 12.6924 9.52561C12.7949 9.47433 12.8975 9.44869 13.0129 9.44869C13.2052 9.44869 13.359 9.49997 13.4744 9.60254C13.577 9.7051 13.6283 9.91023 13.6283 10.1795V12.5256H14.577V10.2179C14.5898 9.73074 14.4744 9.34613 14.2437 9.10254Z" fill="white"/>
<path d="M7.97438 8.24353C8.64105 8.24353 9.21797 8.67943 9.44874 9.29482H10.4744C10.218 8.11533 9.19233 7.23071 7.97438 7.23071C6.56412 7.23071 5.41028 8.42302 5.41028 9.88456C5.41028 11.3461 6.5513 12.5384 7.97438 12.5384C9.19233 12.5384 10.2052 11.6538 10.4744 10.4743H9.44874C9.21797 11.0897 8.65387 11.5256 7.97438 11.5256C7.10259 11.5256 6.39746 10.7948 6.39746 9.88456C6.39746 8.9743 7.10259 8.24353 7.97438 8.24353Z" fill="white"/>
</svg>
