<svg width="69" height="59" viewBox="0 0 69 59" fill="none" xmlns="http://www.w3.org/2000/svg">
<path d="M14.9564 43.4276H15.7556L16.7608 46.2022C16.8819 46.5641 17.003 46.9259 17.1362 47.2878H17.1726C17.2937 46.9259 17.4027 46.5641 17.5238 46.2022L18.5168 43.4276H19.3161V48.6148H18.6985V45.7317C18.6985 45.2853 18.7469 44.6581 18.7833 44.1997H18.759L18.3473 45.3819L17.3542 48.084H16.9183L15.9252 45.3819L15.5134 44.1997H15.4892C15.5134 44.6581 15.5619 45.2853 15.5619 45.7317V48.6148H14.9685V43.4276H14.9564Z" fill="white"/>
<path d="M21.1448 46.4675V43.4276H21.8108V46.4917C21.8108 47.7462 22.3437 48.1323 23.0219 48.1323C23.7243 48.1323 24.2693 47.7462 24.2693 46.4917V43.4276H24.899V46.4796C24.899 48.1564 24.0876 48.7234 23.0219 48.7234C21.9562 48.7113 21.1448 48.1443 21.1448 46.4675Z" fill="white"/>
<path d="M26.2675 47.9392L26.655 47.4929C27.0304 47.8789 27.5633 48.1323 28.0961 48.1323C28.7743 48.1323 29.1861 47.7945 29.1861 47.2758C29.1861 46.745 28.8107 46.5761 28.3141 46.359L27.5633 46.0333C27.0789 45.8282 26.4976 45.4542 26.4976 44.7063C26.4976 43.9101 27.2 43.319 28.1446 43.319C28.7622 43.319 29.3072 43.5844 29.6826 43.9584L29.3314 44.3806C29.0165 44.079 28.629 43.886 28.1446 43.886C27.5512 43.886 27.1636 44.1876 27.1636 44.646C27.1636 45.1526 27.6238 45.3457 28.0235 45.5145L28.7743 45.8282C29.3798 46.0936 29.8521 46.4434 29.8521 47.2155C29.8521 48.0358 29.174 48.6872 28.084 48.6872C27.3574 48.7113 26.7277 48.4097 26.2675 47.9392Z" fill="white"/>
<path d="M31.3175 43.4276H31.9836V48.6148H31.3175V43.4276Z" fill="white"/>
<path d="M33.5338 46.0212C33.5338 44.3444 34.5268 43.319 35.8468 43.319C36.4766 43.319 36.9731 43.6327 37.2759 43.9584L36.9247 44.3806C36.6582 44.0911 36.307 43.886 35.859 43.886C34.8659 43.886 34.2119 44.6942 34.2119 45.9971C34.2119 47.312 34.8417 48.1323 35.8347 48.1323C36.3313 48.1323 36.7067 47.9151 37.0458 47.5532L37.4091 47.9634C36.9973 48.4338 36.4887 48.7113 35.8105 48.7113C34.5026 48.7113 33.5338 47.71 33.5338 46.0212Z" fill="white"/>
<path d="M40.4367 47.9392L40.8242 47.4929C41.1997 47.8789 41.7325 48.1323 42.2654 48.1323C42.9436 48.1323 43.3553 47.7945 43.3553 47.2758C43.3553 46.745 42.9799 46.5761 42.4834 46.359L41.7325 46.0333C41.2481 45.8282 40.6668 45.4542 40.6668 44.7063C40.6668 43.9101 41.3692 43.319 42.3138 43.319C42.9315 43.319 43.4764 43.5844 43.8519 43.9584L43.5007 44.3806C43.1858 44.079 42.7983 43.886 42.3138 43.886C41.7204 43.886 41.3329 44.1876 41.3329 44.646C41.3329 45.1526 41.7931 45.3457 42.1927 45.5145L42.9436 45.8282C43.5491 46.0936 44.0214 46.4434 44.0214 47.2155C44.0214 48.0358 43.3432 48.6872 42.2533 48.6872C41.5267 48.7113 40.8969 48.4097 40.4367 47.9392Z" fill="white"/>
<path d="M46.4314 43.9825H44.857V43.4276H48.6839V43.9825H47.1095V48.6148H46.4435V43.9825H46.4314Z" fill="white"/>
<path d="M50.0039 46.4675V43.4276H50.67V46.4917C50.67 47.7462 51.2028 48.1323 51.881 48.1323C52.5834 48.1323 53.1284 47.7462 53.1284 46.4917V43.4276H53.7581V46.4796C53.7581 48.1564 52.9467 48.7234 51.881 48.7234C50.8153 48.7113 50.0039 48.1443 50.0039 46.4675Z" fill="white"/>
<path d="M55.5868 43.4276H56.8947C58.4933 43.4276 59.3531 44.3565 59.3531 46.0091C59.3531 47.6497 58.4933 48.6269 56.9189 48.6269H55.5868V43.4276ZM56.8342 48.084C58.0694 48.084 58.675 47.324 58.675 46.0091C58.675 44.6943 58.0694 43.9584 56.8342 43.9584H56.2408V48.084H56.8342Z" fill="white"/>
<path d="M60.9033 43.4276H61.5694V48.6148H60.9033V43.4276Z" fill="white"/>
<path d="M63.1074 46.0091C63.1074 44.3444 64.0278 43.3311 65.3357 43.3311C66.6436 43.3311 67.564 44.3444 67.564 46.0091C67.564 47.6739 66.6436 48.7113 65.3357 48.7113C64.0278 48.7113 63.1074 47.6739 63.1074 46.0091ZM66.8858 46.0091C66.8858 44.7063 66.2682 43.8981 65.3357 43.8981C64.3911 43.8981 63.7855 44.6943 63.7855 46.0091C63.7855 47.312 64.4032 48.1443 65.3357 48.1443C66.2682 48.1323 66.8858 47.2999 66.8858 46.0091Z" fill="white"/>
<path d="M15.683 54.4655H16.2764C17.0999 54.4655 17.4753 54.9962 17.4753 55.7803C17.4753 56.5645 17.0999 57.1194 16.2764 57.1194H15.6709V54.4655H15.683ZM16.2643 56.9987C17.0151 56.9987 17.3421 56.48 17.3421 55.7803C17.3421 55.0807 17.0273 54.5861 16.2643 54.5861H15.8162V56.9987H16.2643Z" fill="white"/>
<path d="M20.5514 55.1893H20.6604L20.6846 55.5512H20.6967C20.8299 55.322 21.0116 55.1411 21.2417 55.1411C21.3022 55.1411 21.3628 55.1531 21.4233 55.1772L21.387 55.2979C21.3265 55.2737 21.2901 55.2617 21.2175 55.2617C21.0479 55.2617 20.8299 55.3944 20.6846 55.7804V57.1074H20.5514V55.1893Z" fill="white"/>
<path d="M24.0634 56.1544C24.0634 55.5029 24.4631 55.1411 24.9233 55.1411C25.3834 55.1411 25.7831 55.515 25.7831 56.1544C25.7831 56.7937 25.3834 57.1556 24.9233 57.1556C24.4631 57.1556 24.0634 56.7937 24.0634 56.1544ZM25.6378 56.1544C25.6378 55.6236 25.3229 55.2617 24.9111 55.2617C24.4994 55.2617 24.1966 55.6236 24.1966 56.1544C24.1966 56.6851 24.4994 57.035 24.9111 57.035C25.3229 57.035 25.6378 56.6851 25.6378 56.1544Z" fill="white"/>
<path d="M28.847 55.1893H28.956L28.9803 55.4426H28.9924C29.1861 55.2979 29.4162 55.1411 29.6584 55.1411C30.1792 55.1411 30.4335 55.5271 30.4335 56.1302C30.4335 56.7816 30.0339 57.1677 29.5737 57.1677C29.392 57.1677 29.1861 57.0832 28.9803 56.9264V58.0121H28.847V55.1893ZM28.9803 56.7817C29.2104 56.9747 29.4283 57.047 29.5858 57.047C29.9975 57.047 30.3003 56.661 30.3003 56.1302C30.3003 55.6356 30.1186 55.2617 29.6463 55.2617C29.4526 55.2617 29.2346 55.3823 28.9803 55.5995V56.7817Z" fill="white"/>
<path d="M36.8278 56.6007V55.3099H36.525V55.2134L36.8278 55.1893L36.8399 54.6223H36.9489V55.1893H37.5181V55.3099H36.9489V56.6248C36.9489 56.8781 37.0094 57.047 37.288 57.047C37.3606 57.047 37.4696 57.0229 37.5302 56.9867L37.5786 57.0953C37.4696 57.1315 37.3485 57.1677 37.2759 57.1677C36.9126 57.1677 36.8278 56.9385 36.8278 56.6007Z" fill="white"/>
<path d="M40.473 54.2122H40.6063V55.5029C40.8121 55.2979 41.018 55.141 41.2844 55.141C41.6841 55.141 41.8657 55.3823 41.8657 55.8769V57.1194H41.7325V55.901C41.7325 55.4788 41.5993 55.2737 41.2602 55.2737C41.018 55.2737 40.8485 55.4064 40.5942 55.6597V57.1315H40.4609V54.2122H40.473Z" fill="white"/>
<path d="M44.8812 56.1544C44.8812 55.5271 45.2809 55.1411 45.7169 55.1411C46.1649 55.1411 46.4435 55.4547 46.4435 56.0337C46.4435 56.0699 46.4435 56.1182 46.4314 56.1664H45.0144C45.0144 56.6731 45.3172 57.047 45.7653 57.047C45.9833 57.047 46.1528 56.9747 46.2982 56.8661L46.3587 56.9747C46.2134 57.0591 46.0438 57.1556 45.7653 57.1556C45.2809 57.1677 44.8812 56.7816 44.8812 56.1544ZM46.3224 56.0458C46.3224 55.5271 46.0802 55.2617 45.7169 55.2617C45.3656 55.2617 45.0629 55.5512 45.0266 56.0458H46.3224Z" fill="white"/>
<path d="M52.8741 56.9264L52.8499 57.1194H52.7409V54.2122H52.8741V55.0686L52.862 55.4547C53.0679 55.2858 53.298 55.141 53.5402 55.141C54.0609 55.141 54.3153 55.527 54.3153 56.1302C54.3153 56.7816 53.9156 57.1676 53.4554 57.1676C53.2738 57.1676 53.0558 57.0711 52.8741 56.9264ZM54.1699 56.1302C54.1699 55.6356 53.9883 55.2617 53.516 55.2617C53.3222 55.2617 53.0921 55.3823 52.8499 55.5994V56.7937C53.0679 56.9867 53.298 57.0591 53.4554 57.0591C53.8793 57.047 54.1699 56.661 54.1699 56.1302Z" fill="white"/>
<path d="M57.2097 56.1544C57.2097 55.5271 57.6093 55.1411 58.0453 55.1411C58.4934 55.1411 58.7719 55.4547 58.7719 56.0337C58.7719 56.0699 58.7719 56.1182 58.7598 56.1664H57.3429C57.3429 56.6731 57.6456 57.047 58.0937 57.047C58.3117 57.047 58.4813 56.9747 58.6266 56.8661L58.6871 56.9747C58.5418 57.0591 58.3723 57.1556 58.0937 57.1556C57.6093 57.1677 57.2097 56.7816 57.2097 56.1544ZM58.6387 56.0458C58.6387 55.5271 58.3965 55.2617 58.0332 55.2617C57.682 55.2617 57.3792 55.5512 57.3429 56.0458H58.6387Z" fill="white"/>
<path d="M61.5694 56.6369C61.5694 56.2147 61.9569 56.0096 62.8289 55.9131C62.841 55.5994 62.7562 55.2617 62.3566 55.2617C62.078 55.2617 61.8479 55.3944 61.7268 55.4909L61.6663 55.3823C61.7874 55.2979 62.0538 55.129 62.3687 55.129C62.8289 55.129 62.9621 55.4667 62.9621 55.8528V57.0953H62.8531L62.8289 56.8419H62.8168C62.623 56.9988 62.3808 57.1435 62.1144 57.1435C61.8237 57.1676 61.5694 57.0108 61.5694 56.6369ZM62.8289 56.7213V56.0337C61.9933 56.1302 61.7026 56.3232 61.7026 56.6489C61.7026 56.9505 61.8964 57.0591 62.1386 57.0591C62.3687 57.047 62.5867 56.9384 62.8289 56.7213Z" fill="white"/>
<path d="M66.1592 56.6007V55.3099H65.8564V55.2134L66.1592 55.1893L66.1713 54.6223H66.2803V55.1893H66.8495V55.3099H66.2803V56.6248C66.2803 56.8781 66.3409 57.047 66.6194 57.047C66.6921 57.047 66.8011 57.0229 66.8616 56.9867L66.91 57.0953C66.8011 57.1315 66.68 57.1677 66.6073 57.1677C66.2561 57.1677 66.1592 56.9385 66.1592 56.6007Z" fill="white"/>
<path d="M15.4166 7.0208L31.039 6.97255C31.039 6.97255 27.6602 7.6119 24.7537 7.82904C21.8472 8.04617 21.4476 7.40682 19.4009 7.82904C17.3906 8.25125 18.1414 9.08361 16.6518 9.51789C16.7729 9.5782 16.8577 9.7109 16.8577 9.86772V11.0017C16.8577 11.2188 16.6882 11.3998 16.4823 11.3998H15.8404V12.7146C15.8404 12.8353 15.792 12.9318 15.7193 13.0042C15.6467 13.0765 15.5619 13.1127 15.465 13.1127H15.4166V25.5017L17.6328 13.0042H23.6638L20.0791 33.2221H14.0723V11.3877H13.3336C13.1277 11.3877 12.9581 11.2067 12.9581 10.9896V9.85566C12.9581 9.72296 13.0308 9.60233 13.1277 9.52995C13.1156 9.52995 13.1035 9.52995 13.0914 9.51789C11.5533 9.1198 12.2557 8.34775 10.415 7.91348C8.5984 7.50333 8.35619 8.03411 5.75245 7.81697C3.1366 7.6119 0 7.06905 0 7.06905L14.0844 7.0208V6.29701L0 6.26082C0 6.26082 3.1366 5.73003 5.75245 5.5129C8.35619 5.29576 8.5984 5.8386 10.4392 5.40433C12.28 4.98211 11.5776 4.21007 13.1156 3.81198C13.1277 3.81198 13.1398 3.79992 13.1519 3.79992C13.055 3.72754 12.9824 3.60691 12.9824 3.47421V2.34027C12.9824 2.12313 13.1519 1.94218 13.3578 1.94218H14.0965V0.470466C14.0965 0.217138 14.3145 0 14.5809 0H14.9443C15.2107 0 15.4287 0.205075 15.4287 0.470466V1.94218H16.4944C16.7003 1.94218 16.8698 2.12313 16.8698 2.34027V3.47421C16.8698 3.63103 16.785 3.76373 16.6639 3.82404C18.1535 4.25832 17.4027 5.09068 19.413 5.5129C21.4597 5.93511 21.8472 5.29576 24.7658 5.5129C27.6723 5.73003 31.0511 6.36938 31.0511 6.36938L15.4287 6.30907V7.0208H15.4166Z" fill="white"/>
<path d="M37.3243 23.1011C36.4887 27.842 32.6376 31.8228 28.2173 32.9085C27.4301 33.1015 26.6308 33.2101 25.8194 33.2101H22.1257L23.1551 27.3594H25.1776C28.7017 27.3594 30.7241 25.8998 31.2328 22.9563C31.7172 20.2059 30.2397 18.8186 26.7761 18.8186H24.6689L25.6983 12.98H29.392C30.2034 12.98 30.9663 13.0886 31.693 13.2816C35.7257 14.3794 38.172 18.3602 37.3243 23.1011Z" fill="white"/>
<path d="M63.6403 18.2637C63.1801 18.1431 62.6835 18.0586 62.1628 18.0466C62.078 18.0466 61.9932 18.0466 61.9085 18.0466H59.1352L58.3601 22.4255H59.9466C62.0175 22.4255 63.1558 23.089 63.3375 24.4039C63.3859 24.7417 63.3738 25.1036 63.3012 25.5258C63.2164 26.0204 63.0711 26.4667 62.8652 26.8527C62.1749 28.1676 60.8064 28.8311 58.7598 28.8311H57.246L56.4709 33.2221H59.2442C59.8497 33.2221 60.4552 33.1497 61.0486 32.9929C64.3669 32.1726 67.2613 29.193 67.891 25.6343C68.4965 22.0636 66.6679 19.084 63.6403 18.2637Z" fill="white"/>
<path d="M58.1906 12.9921L54.6059 33.21H48.5628L52.1475 12.9921H58.1906Z" fill="white"/>
<path d="M29.4889 9.73505H31.2933V10.4709H29.4889L25.3834 10.1934C25.3834 10.1934 25.4077 10.29 24.8627 10.29C24.8627 10.29 24.0392 10.2658 24.0392 10.0969C24.0392 9.92806 24.8627 9.90393 24.8627 9.90393C25.4077 9.90393 25.3834 10.0004 25.3834 10.0004L29.4889 9.73505Z" fill="white"/>
<path d="M64.2094 9.73505H31.6203V10.4709H64.2094V9.73505Z" fill="white"/>
<path d="M64.8392 9.73505H64.5243V10.4709H64.8392V9.73505Z" fill="white"/>
<path d="M65.1298 9.73505H67.3581C68.0726 9.73505 67.9879 10.109 67.9879 10.109C67.9879 10.109 68.0605 10.4709 67.3581 10.4709H65.1298V9.73505Z" fill="white"/>
<path d="M64.8392 9.73505H64.5243V10.4709H64.8392V9.73505Z" fill="white"/>
<path d="M64.8392 35.7313H64.5243V36.4671H64.8392V35.7313Z" fill="white"/>
<path d="M65.1298 35.7313H67.3581C68.0726 35.7313 67.9879 36.1052 67.9879 36.1052C67.9879 36.1052 68.0605 36.4671 67.3581 36.4671H65.1298V35.7313Z" fill="white"/>
<path d="M64.8392 35.7313H64.5243V36.4671H64.8392V35.7313Z" fill="white"/>
<path d="M20.9631 35.7313H22.7676V36.4671H20.9631L16.8577 36.1897C16.8577 36.1897 16.8819 36.2862 16.3369 36.2862C16.3369 36.2862 15.5134 36.262 15.5134 36.0932C15.5134 35.9243 16.3369 35.9001 16.3369 35.9001C16.8819 35.9001 16.8577 35.9967 16.8577 35.9967L20.9631 35.7313Z" fill="white"/>
<path d="M64.1973 35.7313H23.0825V36.4671H64.1973V35.7313Z" fill="white"/>
<path d="M49.7011 12.9197L48.6354 18.9272H46.6493L44.1303 33.1377H38.0873L39.7827 23.5474C39.7827 23.5474 40.037 21.931 40.037 21.8827C40.037 21.8707 40.037 21.8707 40.037 21.8586C40.1339 20.9056 40.1339 19.9888 40.037 19.0961C39.7948 16.7197 38.39 14.5965 37.0215 12.9197H49.7011Z" fill="white"/>
</svg>
