<svg width="29" height="20" viewBox="0 0 29 20" fill="none" xmlns="http://www.w3.org/2000/svg">
<path d="M27.849 3.13021C27.5208 1.89583 26.5573 0.927083 25.3333 0.598958C23.1146 0 14.224 0 14.224 0C14.224 0 5.32813 0 3.10938 0.598958C1.88542 0.927083 0.921875 1.89583 0.59375 3.13021C0 5.35937 0 10.0208 0 10.0208C0 10.0208 0 14.6771 0.59375 16.9115C0.921875 18.1406 1.88542 19.0729 3.10938 19.401C5.32813 20 14.224 20 14.224 20C14.224 20 23.1198 20 25.3385 19.401C26.5625 19.0729 27.526 18.1406 27.8542 16.9115C28.4479 14.6771 28.4479 10.0208 28.4479 10.0208C28.4479 10.0208 28.4427 5.35937 27.849 3.13021ZM11.3125 14.25V5.79167L18.75 10.0208L11.3125 14.25Z" fill="white"/>
</svg>
