<svg width="20" height="20" viewBox="0 0 20 20" fill="none" xmlns="http://www.w3.org/2000/svg">
<path d="M10 4.87225C7.16293 4.87225 4.87454 7.16167 4.87454 10C4.87454 12.8383 7.16293 15.1277 10 15.1277C12.8371 15.1277 15.1255 12.8383 15.1255 10C15.1255 7.16167 12.8371 4.87225 10 4.87225ZM10 13.3337C8.16661 13.3337 6.66778 11.8387 6.66778 10C6.66778 8.16133 8.16215 6.6663 10 6.6663C11.8379 6.6663 13.3322 8.16133 13.3322 10C13.3322 11.8387 11.8334 13.3337 10 13.3337ZM16.5306 4.6625C16.5306 5.32746 15.9953 5.85853 15.3351 5.85853C14.6705 5.85853 14.1396 5.32299 14.1396 4.6625C14.1396 4.00201 14.6749 3.46647 15.3351 3.46647C15.9953 3.46647 16.5306 4.00201 16.5306 4.6625ZM19.9253 5.87638C19.8495 4.27424 19.4837 2.85507 18.3105 1.68582C17.1417 0.516568 15.7232 0.150619 14.1218 0.070289C12.4713 -0.0234297 7.52426 -0.0234297 5.87376 0.070289C4.27679 0.146156 2.85826 0.512105 1.68507 1.68136C0.511877 2.85061 0.150552 4.26978 0.0702576 5.87192C-0.0234192 7.52315 -0.0234192 12.4724 0.0702576 14.1236C0.146091 15.7258 0.511877 17.1449 1.68507 18.3142C2.85826 19.4834 4.27233 19.8494 5.87376 19.9297C7.52426 20.0234 12.4713 20.0234 14.1218 19.9297C15.7232 19.8538 17.1417 19.4879 18.3105 18.3142C19.4792 17.1449 19.845 15.7258 19.9253 14.1236C20.019 12.4724 20.019 7.52761 19.9253 5.87638ZM17.793 15.8953C17.4451 16.7701 16.7715 17.4439 15.8927 17.7965C14.5768 18.3186 11.4542 18.1981 10 18.1981C8.54578 18.1981 5.41876 18.3142 4.10728 17.7965C3.23297 17.4484 2.55939 16.7745 2.20698 15.8953C1.68507 14.5788 1.80551 11.4549 1.80551 10C1.80551 8.54513 1.68953 5.41671 2.20698 4.10465C2.55492 3.22995 3.22851 2.55606 4.10728 2.2035C5.42322 1.68136 8.54578 1.80185 10 1.80185C11.4542 1.80185 14.5812 1.68582 15.8927 2.2035C16.767 2.5516 17.4406 3.22548 17.793 4.10465C18.3149 5.42118 18.1945 8.54513 18.1945 10C18.1945 11.4549 18.3149 14.5833 17.793 15.8953Z" fill="white"/>
</svg>
