<svg id="레이어_1" data-name="레이어 1" xmlns="http://www.w3.org/2000/svg" viewBox="0 0 200.05 30.71"><defs><style>.cls-1{fill:#fff;}</style></defs><path class="cls-1" d="M0,1.76H6.15c6.86,0,11.1,3.55,11.1,11.13S13,24.19,6.4,24.19H0ZM5.88,20.59c4.19,0,6.79-2.25,6.79-7.7s-2.6-7.55-6.79-7.55H4.49V20.59Z"/><path class="cls-1" d="M21.29,7.22h3.64l.3,3h.12C26.59,8,28.41,6.79,30.17,6.79a4.65,4.65,0,0,1,2,.37L31.38,11a5.1,5.1,0,0,0-1.75-.28c-1.34,0-2.94.88-3.92,3.34V24.19H21.29Z"/><path class="cls-1" d="M33.08,15.74c0-5.67,3.92-8.95,8.16-8.95s8.16,3.28,8.16,9-3.91,8.88-8.16,8.88S33.08,21.34,33.08,15.74Zm11.77,0c0-3.22-1.31-5.31-3.61-5.31s-3.61,2.09-3.61,5.31S38.94,21,41.24,21,44.85,18.92,44.85,15.74Z"/><path class="cls-1" d="M53.13,7.22h3.64L57.07,9h.12a8.1,8.1,0,0,1,5-2.18c4.19,0,6.68,3.43,6.68,8.64,0,5.82-3.49,9.19-7.22,9.19a6.34,6.34,0,0,1-4.22-1.85l.13,2.79v5.15H53.13Zm11.16,8.27c0-3.24-1-5-3.37-5a4.79,4.79,0,0,0-3.36,1.76v7.46A4.73,4.73,0,0,0,60.65,21C62.71,21,64.29,19.19,64.29,15.49Z"/><path class="cls-1" d="M80.18,18.25V10.73h-2.4V7.43l2.61-.21.52-4.55h3.73V7.22h4.18v3.51H84.64v7.52c0,1.94.78,2.85,2.3,2.85a5,5,0,0,0,1.67-.36L89.34,24a10.83,10.83,0,0,1-3.58.64C81.73,24.62,80.18,22.07,80.18,18.25Z"/><path class="cls-1" d="M92.28,0h4.43V6.09l-.19,3.19a7.73,7.73,0,0,1,5.34-2.49c3.67,0,5.24,2.55,5.24,6.82V24.19h-4.45v-10c0-2.61-.73-3.55-2.4-3.55-1.39,0-2.27.67-3.54,1.91V24.19H92.28Z"/><path class="cls-1" d="M110.63,15.74c0-5.52,3.85-8.95,7.91-8.95,4.67,0,7.09,3.43,7.09,8.13a8.38,8.38,0,0,1-.21,2H115a4.46,4.46,0,0,0,4.7,4.24A7,7,0,0,0,123.48,20L125,22.74a10.74,10.74,0,0,1-6,1.88C114.33,24.62,110.63,21.31,110.63,15.74ZM121.81,14c0-2.31-1-3.76-3.21-3.76-1.79,0-3.37,1.27-3.7,3.76Z"/><path class="cls-1" d="M140.16,22.41h-.09l-.39,1.78h-3.49V0h4.43V6.09l-.09,2.73a7.24,7.24,0,0,1,4.7-2c4.18,0,6.7,3.43,6.7,8.61,0,5.85-3.49,9.22-7.22,9.22A6.63,6.63,0,0,1,140.16,22.41Zm7.19-6.92c0-3.24-1-5-3.37-5a4.79,4.79,0,0,0-3.36,1.76v7.46A4.68,4.68,0,0,0,143.71,21C145.77,21,147.35,19.19,147.35,15.49Z"/><path class="cls-1" d="M154.66,15.74c0-5.52,3.85-8.95,7.91-8.95,4.67,0,7.1,3.43,7.1,8.13a7.82,7.82,0,0,1-.22,2H159a4.46,4.46,0,0,0,4.7,4.24A7,7,0,0,0,167.51,20L169,22.74a10.73,10.73,0,0,1-5.94,1.88C158.36,24.62,154.66,21.31,154.66,15.74ZM165.85,14c0-2.31-1-3.76-3.22-3.76-1.79,0-3.36,1.27-3.7,3.76Z"/><path class="cls-1" d="M172.06,19.59c0-3.64,2.95-5.55,9.77-6.28-.06-1.67-.79-2.94-2.88-2.94A9.56,9.56,0,0,0,174.28,12L172.67,9a13.52,13.52,0,0,1,7.1-2.25c4.3,0,6.51,2.58,6.51,7.49v9.91h-3.63l-.34-1.81h-.09a8,8,0,0,1-5.12,2.24A4.83,4.83,0,0,1,172.06,19.59Zm9.77-.13V16c-4.13.54-5.52,1.67-5.52,3.18,0,1.34.94,1.91,2.24,1.91A4.47,4.47,0,0,0,181.83,19.46Z"/><path class="cls-1" d="M190.9,18.25V10.73h-2.4V7.43l2.61-.21.51-4.55h3.73V7.22h4.19v3.51h-4.19v7.52c0,1.94.79,2.85,2.31,2.85a5.08,5.08,0,0,0,1.67-.36l.72,3.24a10.77,10.77,0,0,1-3.57.64C192.44,24.62,190.9,22.07,190.9,18.25Z"/></svg>