<?xml version="1.0" encoding="utf-8"?>
<!-- Generator: Adobe Illustrator 25.1.0, SVG Export Plug-In . SVG Version: 6.00 Build 0)  -->
<svg version="1.1" id="레이어_1" xmlns="http://www.w3.org/2000/svg" xmlns:xlink="http://www.w3.org/1999/xlink" x="0px"
	 y="0px" viewBox="0 0 75 49" style="enable-background:new 0 0 75 49;" xml:space="preserve">
<style type="text/css">
	.st0{fill:#FFFFFF;}
	.st1{fill:none;}
</style>
<g>
	<g>
		<path class="st0" d="M17.1-78.1l17.1-0.1c0,0-3.7,0.7-6.9,0.9c-3.2,0.2-3.6-0.5-5.8,0s-1.4,1.4-3,1.9c0.1,0.1,0.2,0.2,0.2,0.4v1.2
			c0,0.2-0.2,0.4-0.4,0.4h-0.7v1.4c0,0.1-0.1,0.2-0.1,0.3c-0.1,0.1-0.2,0.1-0.3,0.1h-0.1V-58l2.4-13.7h6.6l-3.9,22.2h-6.6v-23.9
			h-0.8c-0.2,0-0.4-0.2-0.4-0.4V-75c0-0.1,0.1-0.3,0.2-0.4l0,0c-1.7-0.4-0.9-1.3-2.9-1.8c-2-0.4-2.2,0.1-5.1-0.1
			C3.7-77.4,0.3-78,0.3-78l15.4-0.1v-0.8H0.3c0,0,3.4-0.6,6.3-0.8c2.8-0.2,3.1,0.4,5.1-0.1s1.2-1.3,2.9-1.7l0,0
			c-0.1-0.1-0.2-0.2-0.2-0.4v-1.2c0-0.2,0.2-0.4,0.4-0.4h0.8v-1.6c0-0.3,0.2-0.5,0.5-0.5h0.4c0.3,0,0.5,0.2,0.5,0.5v1.6h1.2
			c0.2,0,0.4,0.2,0.4,0.4v1.2c0,0.2-0.1,0.3-0.2,0.4c1.6,0.5,0.8,1.4,3,1.9s2.7-0.2,5.8,0c3.2,0.2,6.9,0.9,6.9,0.9L17-78.8
			L17.1-78.1L17.1-78.1z"/>
		<path class="st0" d="M41.1-60.4c-0.9,5.2-5.1,9.6-10,10.8c-0.9,0.2-1.7,0.3-2.6,0.3h-4l1.1-6.4h2.2c3.9,0,6.1-1.6,6.6-4.8
			c0.5-3-1.1-4.5-4.9-4.5h-2.3l1.1-6.4h4c0.9,0,1.7,0.1,2.5,0.3C39.3-70,42-65.6,41.1-60.4z"/>
		<path class="st0" d="M69.8-65.8c-0.5-0.1-1-0.2-1.6-0.2c-0.1,0-0.2,0-0.3,0h-3L64-61.2h1.7c2.3,0,3.5,0.7,3.7,2.2
			c0.1,0.4,0,0.8,0,1.2c-0.1,0.5-0.3,1-0.5,1.5c-0.8,1.4-2.2,2.2-4.5,2.2h-1.7L62-49.3h3c0.7,0,1.3-0.1,2-0.3
			c3.6-0.9,6.8-4.2,7.5-8.1C75.1-61.6,73.1-64.9,69.8-65.8z"/>
		<path class="st0" d="M63.8-71.5l-3.9,22.2h-6.6l3.9-22.2H63.8z"/>
		<path class="st0" d="M32.5-75.1h2v0.8h-2L28-74.6c0,0,0,0.1-0.6,0.1c0,0-0.9,0-0.9-0.2s0.9-0.2,0.9-0.2c0.6,0,0.6,0.1,0.6,0.1
			L32.5-75.1z"/>
		<path class="st0" d="M70.4-75.1H34.8v0.8h35.6C70.4-74.3,70.4-75.1,70.4-75.1z"/>
		<path class="st0" d="M71.1-75.1h-0.3v0.8h0.3V-75.1z"/>
		<path class="st0" d="M71.4-75.1h2.4c0.8,0,0.7,0.4,0.7,0.4s0.1,0.4-0.7,0.4h-2.4V-75.1z"/>
		<path class="st0" d="M71.1-75.1h-0.3v0.8h0.3V-75.1z"/>
		<path class="st0" d="M71.1-46.6h-0.3v0.8h0.3V-46.6z"/>
		<path class="st0" d="M71.4-46.6h2.4c0.8,0,0.7,0.4,0.7,0.4s0.1,0.4-0.7,0.4h-2.4V-46.6z"/>
		<path class="st0" d="M71.1-46.6h-0.3v0.8h0.3V-46.6z"/>
		<path class="st0" d="M23.2-46.6h2v0.8h-2l-4.5-0.3c0,0,0,0.1-0.6,0.1c0,0-0.9,0-0.9-0.2s0.9-0.2,0.9-0.2c0.6,0,0.6,0.1,0.6,0.1
			L23.2-46.6z"/>
		<path class="st0" d="M70.4-46.6H25.5v0.8h44.9V-46.6z"/>
		<path class="st0" d="M54.6-71.6L53.4-65h-2.2l-2.8,15.6h-6.6L43.7-60l0.3-1.8l0,0c0.1-1,0.1-2.1,0-3c-0.3-2.6-1.8-4.9-3.3-6.8
			C40.7-71.6,54.6-71.6,54.6-71.6z"/>
	</g>
	<rect x="16.8" y="-43" class="st1" width="57.9" height="6.2"/>
	
		<text transform="matrix(1 0 0 1 17.1269 -37.7552)" class="st0" style="font-family:'NotoSansCJKkr-Medium-KSCpc-EUC-H'; font-size:6px;">Drop the beat</text>
</g>
<g>
	<g>
		<g>
			<path class="st0" d="M15.8,7.2l16-0.1c0,0-3.5,0.6-6.4,0.8c-3,0.2-3.4-0.5-5.4,0c-2,0.5-1.3,1.3-2.8,1.7c0.1,0.1,0.2,0.2,0.2,0.4
				v1.1c0,0.2-0.2,0.4-0.4,0.4h-0.6v1.3c0,0.1-0.1,0.2-0.1,0.3c-0.1,0.1-0.2,0.1-0.3,0.1h-0.1v12.9L18,13.3h6.1L20.5,34h-6.1V11.7
				h-0.7c-0.2,0-0.4-0.2-0.4-0.4v-1.1c0-0.1,0.1-0.3,0.2-0.4l0,0c-1.6-0.4-0.8-1.2-2.8-1.7c-1.8-0.4-2,0.1-4.8-0.1
				C3.1,7.9,0,7.4,0,7.4l14.4-0.2V6.5H0c0,0,3.2-0.6,5.9-0.7c2.7-0.2,2.9,0.4,4.8-0.1c1.8-0.5,1.1-1.2,2.8-1.6l0,0
				c-0.1-0.1-0.2-0.2-0.2-0.4V2.5c0-0.2,0.2-0.4,0.4-0.4h0.7V0.5c0-0.3,0.2-0.5,0.5-0.5h0.4c0.3,0,0.5,0.2,0.5,0.5v1.5h1.1
				c0.2,0,0.4,0.2,0.4,0.4v1.1c0,0.2-0.1,0.3-0.2,0.4c1.5,0.5,0.7,1.3,2.8,1.7c2,0.5,2.6-0.2,5.4,0c3.1,0.3,6.5,0.9,6.5,0.9l-16-0.1
				L15.8,7.2L15.8,7.2z"/>
			<path class="st0" d="M38.2,23.7c-0.8,4.9-4.8,9-9.4,10.1C28,34,27.3,34,26.3,34h-3.8l1-6h2c3.7,0,5.7-1.5,6.1-4.5
				c0.5-2.8-1-4.2-4.6-4.2h-2.1l1-6h3.8c0.8,0,1.6,0.1,2.3,0.3C36.5,14.8,39,18.8,38.2,23.7z"/>
			<path class="st0" d="M65.1,18.7c-0.5-0.1-0.9-0.2-1.5-0.2c-0.1,0-0.2,0-0.3,0h-2.8L59.7,23h1.6c2.1,0,3.3,0.6,3.5,2
				c0.1,0.4,0,0.7,0,1.1c-0.1,0.5-0.3,0.9-0.5,1.4c-0.7,1.3-2,2-4.2,2h-1.6L57.8,34h2.8c0.6,0,1.2-0.1,1.8-0.3
				c3.4-0.8,6.3-3.9,7-7.6C70,22.7,68.2,19.5,65.1,18.7z"/>
			<path class="st0" d="M59.5,13.4l-3.7,20.7h-6.1l3.7-20.7C53.2,13.4,59.5,13.4,59.5,13.4z"/>
			<path class="st0" d="M30.2,10H32v0.7h-1.8L26,10.5c0,0,0,0.1-0.6,0.1c0,0-0.8,0-0.8-0.2s0.8-0.2,0.8-0.2c0.6,0,0.6,0.1,0.6,0.1
				L30.2,10z"/>
			<path class="st0" d="M65.6,10H32.3v0.7h33.3V10z"/>
			<path class="st0" d="M66.3,10H66v0.7h0.3V10z"/>
			<path class="st0" d="M66.5,10h2.2c0.7,0,0.6,0.4,0.6,0.4s0.1,0.4-0.6,0.4h-2.2V10z"/>
			<path class="st0" d="M66.3,10H66v0.7h0.3V10z"/>
			<path class="st0" d="M66.3,36.7H66v0.7h0.3V36.7z"/>
			<path class="st0" d="M66.5,36.7h2.2c0.7,0,0.6,0.4,0.6,0.4s0.1,0.4-0.6,0.4h-2.2V36.7z"/>
			<path class="st0" d="M66.3,36.7H66v0.7h0.3V36.7z"/>
			<path class="st0" d="M21.5,36.7h1.8v0.7h-1.8l-4.2-0.3c0,0,0,0.1-0.6,0.1c0,0-0.8,0-0.8-0.2s0.8-0.2,0.8-0.2
				c0.6,0,0.6,0.1,0.6,0.1L21.5,36.7z"/>
			<path class="st0" d="M65.6,36.7h-42v0.7h42V36.7z"/>
			<path class="st0" d="M50.8,13.3l-1.1,6.1h-2L45.1,34h-6.1l1.7-9.8l0.3-1.7l0,0c0.1-0.9,0.1-1.9,0-2.8c-0.3-2.5-1.7-4.6-3.1-6.3
				L50.8,13.3C50.8,13.4,50.8,13.3,50.8,13.3z"/>
		</g>
	</g>
	<g>
		<path class="st0" d="M14.3,40.4h1.8c2,0,3.3,1.1,3.3,3.3c0,2.2-1.3,3.4-3.2,3.4h-1.9V40.4z M16,46c1.2,0,2-0.7,2-2.3
			c0-1.6-0.8-2.2-2-2.2h-0.4V46H16z"/>
		<path class="st0" d="M20.6,42h1.1l0.1,0.9h0c0.4-0.7,0.9-1,1.4-1c0.3,0,0.4,0,0.6,0.1l-0.2,1.1c-0.2-0.1-0.3-0.1-0.5-0.1
			c-0.4,0-0.9,0.3-1.2,1v3h-1.3V42z"/>
		<path class="st0" d="M24.1,44.6c0-1.7,1.2-2.7,2.4-2.7s2.4,1,2.4,2.7c0,1.7-1.2,2.6-2.4,2.6S24.1,46.2,24.1,44.6z M27.6,44.6
			c0-1-0.4-1.6-1.1-1.6s-1.1,0.6-1.1,1.6c0,0.9,0.4,1.6,1.1,1.6S27.6,45.5,27.6,44.6z"/>
		<path class="st0" d="M30,42h1.1l0.1,0.5h0c0.4-0.4,0.9-0.6,1.5-0.6c1.2,0,2,1,2,2.6c0,1.7-1,2.7-2.1,2.7c-0.4,0-0.9-0.2-1.2-0.5
			l0,0.8V49H30V42z M33.3,44.5c0-1-0.3-1.5-1-1.5c-0.3,0-0.6,0.2-1,0.5v2.2c0.3,0.3,0.6,0.4,0.9,0.4C32.9,46.1,33.3,45.6,33.3,44.5z
			"/>
		<path class="st0" d="M38.1,45.3v-2.2h-0.7v-1l0.8-0.1l0.2-1.3h1.1V42h1.2v1h-1.2v2.2c0,0.6,0.2,0.8,0.7,0.8c0.2,0,0.4-0.1,0.5-0.1
			l0.2,1c-0.3,0.1-0.6,0.2-1.1,0.2C38.5,47.2,38.1,46.4,38.1,45.3z"/>
		<path class="st0" d="M41.6,39.9H43v1.8l-0.1,0.9c0.4-0.4,0.9-0.7,1.6-0.7c1.1,0,1.6,0.8,1.6,2v3.1h-1.3v-3c0-0.8-0.2-1.1-0.7-1.1
			c-0.4,0-0.7,0.2-1.1,0.6v3.5h-1.3V39.9z"/>
		<path class="st0" d="M47.1,44.6c0-1.6,1.1-2.7,2.3-2.7c1.4,0,2.1,1,2.1,2.4c0,0.2,0,0.5-0.1,0.6h-3.1c0.1,0.8,0.6,1.3,1.4,1.3
			c0.4,0,0.8-0.1,1.1-0.4l0.4,0.8c-0.5,0.3-1.1,0.6-1.8,0.6C48.2,47.2,47.1,46.2,47.1,44.6z M50.4,44c0-0.7-0.3-1.1-1-1.1
			c-0.5,0-1,0.4-1.1,1.1H50.4z"/>
		<path class="st0" d="M55.8,46.5L55.8,46.5l-0.1,0.5h-1v-7.2H56v1.8l0,0.8c0.4-0.4,0.9-0.6,1.4-0.6c1.2,0,2,1,2,2.6
			c0,1.7-1,2.7-2.1,2.7C56.7,47.2,56.3,47,55.8,46.5z M58,44.5c0-1-0.3-1.5-1-1.5c-0.3,0-0.6,0.2-1,0.5v2.2c0.3,0.3,0.6,0.4,0.9,0.4
			C57.5,46.1,58,45.6,58,44.5z"/>
		<path class="st0" d="M60.1,44.6c0-1.6,1.1-2.7,2.3-2.7c1.4,0,2.1,1,2.1,2.4c0,0.2,0,0.5-0.1,0.6h-3.1c0.1,0.8,0.6,1.3,1.4,1.3
			c0.4,0,0.8-0.1,1.1-0.4l0.4,0.8c-0.5,0.3-1.1,0.6-1.8,0.6C61.2,47.2,60.1,46.2,60.1,44.6z M63.5,44c0-0.7-0.3-1.1-1-1.1
			c-0.5,0-1,0.4-1.1,1.1H63.5z"/>
		<path class="st0" d="M65.3,45.7c0-1.1,0.9-1.6,2.9-1.9c0-0.5-0.2-0.9-0.9-0.9c-0.5,0-0.9,0.2-1.4,0.5l-0.5-0.9
			c0.6-0.4,1.3-0.7,2.1-0.7c1.3,0,1.9,0.8,1.9,2.2v2.9h-1.1l-0.1-0.5h0c-0.4,0.4-0.9,0.7-1.5,0.7C65.9,47.2,65.3,46.6,65.3,45.7z
			 M68.2,45.7v-1c-1.2,0.2-1.6,0.5-1.6,0.9c0,0.4,0.3,0.6,0.7,0.6C67.6,46.2,67.9,46,68.2,45.7z"/>
		<path class="st0" d="M70.9,45.3v-2.2h-0.7v-1l0.8-0.1l0.2-1.3h1.1V42h1.2v1h-1.2v2.2c0,0.6,0.2,0.8,0.7,0.8c0.2,0,0.4-0.1,0.5-0.1
			l0.2,1c-0.3,0.1-0.6,0.2-1.1,0.2C71.3,47.2,70.9,46.4,70.9,45.3z"/>
	</g>
</g>
</svg>
